<svg xmlns="http://www.w3.org/2000/svg" xmlns:xlink="http://www.w3.org/1999/xlink" version="1.1" id="Layer_1" x="0px" y="0px" style="enable-background:new 0 0 2560 1600;" xml:space="preserve" viewBox="677.16 630.19 1205.69 339.64">
<style type="text/css">
	.st0{fill:#F8FAF9;}
	.st1{fill:#19304F;}
	.st2{fill:#5CC5FF;}
	.st3{fill:#747E97;}
</style>
<g>
	<path class="st2" d="M730.14,731.96c-4.6,10.83-7.04,21.98-7.42,33.26c-0.29,8.73,0.63,17.55,2.78,26.4   c5.03,20.89,14.37,37.86,28.05,50.61l-30.35,30.35c-12.36-11.35-22.99-25.36-31.86-42.08c-8.26-15.59-12.61-32.47-13.81-50.11   c-0.34-5.14-0.45-10.2-0.32-15.16c1.02-38.72,16.63-71.66,46.23-98.71c20.06-18.32,43.84-29.56,70.69-34.09   c37.59-6.36,72.52,0.79,104.38,21.71c22.83,15,39.98,35.09,51.24,60.09c0.25,0.54,0.5,1.11,0.7,1.67c0.05,0.14-0.02,0.29-0.05,0.74   h-49.5c-3.47-4.44-6.59-9-10.27-13.02c-21.82-23.92-48.94-35.63-81.18-32.04C771.39,675.78,745.04,696.88,730.14,731.96z"/>
	<path class="st0" d="M833.22,765.22h22.21c0,6.72-1.56,13.09-4.33,18.75l-18.58-16.95C831.83,766.39,832.28,765.22,833.22,765.22z"/>
	<path class="st0" d="M881.43,766.17c0,13.18-3.99,25.43-10.85,35.58l-10.72-9.79c4.51-7.87,7.08-17.01,7.08-26.74h14.46   C881.43,765.54,881.43,765.85,881.43,766.17z"/>
	<path class="st0" d="M906.54,765.22c0,20.06-6.29,38.61-17.01,53.84l-10.65-9.72c8.44-12.61,13.36-27.8,13.36-44.11H906.54z"/>
	<path class="st0" d="M960.31,776.14c-0.79,15.88-4.02,31.25-10.2,45.96c-5.23,12.5-11.91,23.83-20.08,33.93   c-9.36,11.76-20.69,21.86-33.93,30.35c-23.67,15.14-49.57,22.97-77.28,22.41v-40.43c5.26,0.09,10.45-0.32,15.57-1.22   c11.67-1.96,22.99-6.41,33.87-13.24c12.03-7.54,21.66-16.79,29.08-27.71l-0.05-0.05c12.39-17.15,19.67-38.18,19.67-60.92h43.5   C960.49,768.88,960.51,772.51,960.31,776.14z"/>
	<path class="st0" d="M1204.22,818.04c-57.17,0-114.18,0-171.23,0c2.22,15.55,16.1,38.13,40.55,47.22   c26.27,9.77,57.75,1.59,75.58-23.61c16.22,0,32.49,0,49.47,0c-2.73,5.22-4.97,10.22-7.82,14.85   c-14.45,23.51-35.01,39.39-61.27,47.61c-51.37,16.09-107.38-6.3-131.89-53.97c-9-17.52-12.41-36.14-10.91-55.79   c3.23-42.22,33.43-78.8,74.05-91.52c37.84-11.85,73.1-5.93,104.53,18.36c22.31,17.23,35.39,40.32,39.21,68.42   C1205.76,798.96,1205.71,808.29,1204.22,818.04z M1158.03,784.25c-5.65-24.03-31.73-49.65-67.15-46.92   c-18.07,1.39-32.95,9.33-44.67,23.09c-5.91,6.94-10.23,14.77-12.74,23.83C1075.21,784.25,1116.52,784.25,1158.03,784.25z"/>
	<path class="st0" d="M1759.99,969.83c-16.74,0-33.16,0-49.88,0c0.33-0.93,0.55-1.63,0.83-2.3c11.14-26.47,22.28-52.94,33.47-79.39   c0.78-1.84,0.73-3.35-0.09-5.18c-13.25-29.37-26.46-58.77-39.64-88.18c-13.36-29.82-26.67-59.66-39.99-89.5   c-0.3-0.68-0.54-1.38-0.88-2.26c16.09,0,31.92,0,48.05,0c18.72,43.64,37.46,87.36,56.21,131.07c0.2,0.02,0.4,0.03,0.59,0.05   c18.74-43.68,37.47-87.36,56.23-131.1c16.04,0,31.93,0,48.17,0C1835.32,792.08,1797.67,880.91,1759.99,969.83z"/>
	<path class="st0" d="M1428.77,903.34c-14.92,0-29.53,0-44.48,0c0-1.08,0-2.04,0-3c0-35.23-0.06-70.45,0.03-105.68   c0.04-13.41-3.35-25.73-11.71-36.26c-13.1-16.5-30.26-24.05-51.19-20.35c-22.21,3.93-35.86,17.97-43.02,39.01   c-2.16,6.35-2.61,12.76-2.62,19.29c-0.05,34.62-0.03,69.23-0.03,103.85c0,0.97,0,1.95,0,3.09c-14.83,0-29.42,0-44.35,0   c0-0.93,0-1.82,0-2.71c0-34.46-0.01-68.93,0-103.39c0.01-31.02,11.41-57.09,35.26-76.93c22.29-18.54,48.33-26.32,77.18-22.04   c35.75,5.3,61.18,24.99,76.48,57.64c6.01,12.81,8.44,26.51,8.44,40.64c0,34.84,0,69.69,0,104.53   C1428.77,901.76,1428.77,902.5,1428.77,903.34z"/>
	<path class="st0" d="M1457.52,636.61c14.8,0,29.39,0,44.2,0c0,22.08,0,39.84,0,62.03c19.15,0,38.09,0,57.25,0   c0,12.93,0,25.59,0,38.61c-19.01,0-37.94,0-57.07,0c-0.05,1.15-0.13,1.96-0.13,2.77c-0.01,22.8-0.15,45.59,0.04,68.39   c0.18,21.69,9.5,38.4,28.25,49.55c8.09,4.81,17.02,6.92,26.4,7.21c0.82,0.03,1.64,0,2.57,0c0,13.45,0,26.6,0,40.42   c-7.25-0.6-14.37-0.67-21.3-1.87c-28.26-4.9-50.22-19.58-65.66-43.75c-10.02-15.69-14.65-33.03-14.65-51.62   c-0.01-57.87-0.01-111.56,0-169.43C1457.4,638.19,1457.48,637.44,1457.52,636.61z"/>
	<path class="st0" d="M1641.39,903.32c-14.77,0-29.38,0-44.15,0c0-88.92,0-177.71,0-266.71c14.69,0,29.35,0,44.15,0   C1641.39,725.46,1641.39,814.26,1641.39,903.32z"/>
	<circle class="st2" cx="1858.6" cy="882.84" r="24.25"/>
</g>
</svg>